<svg xmlns="http://www.w3.org/2000/svg" width="1200" height="380" viewBox="0 0 1200 380" role="img" aria-label="Portfolio — Portfólio de uma página, em HTML e CSS">
  <defs>
    <linearGradient id="bg" x1="0" y1="0" x2="1" y2="1">
      <stop offset="0%" stop-color="#000000"/>
      <stop offset="100%" stop-color="#2a0a52"/>
    </linearGradient>
    <filter id="sombra" x="-20%" y="-20%" width="140%" height="140%">
      <feDropShadow dx="0" dy="10" stdDeviation="16" flood-color="#000000" flood-opacity=".28"/>
    </filter>
    <clipPath id="recorte"><rect width="428" height="252" rx="18"/></clipPath>
  </defs>

  <rect width="1200" height="380" rx="24" fill="url(#bg)"/>
  <circle cx="1105" cy="60" r="190" fill="#b629f8" opacity="0.1"/>
  <circle cx="110" cy="360" r="150" fill="#b629f8" opacity="0.08000000000000002"/>

  <text x="72" y="148" font-family="system-ui,-apple-system,'Segoe UI',Roboto,sans-serif" font-size="52" font-weight="800" letter-spacing="-1" fill="#ffffff">Portfolio</text>
  <text x="74" y="196" font-family="system-ui,-apple-system,'Segoe UI',Roboto,sans-serif" font-size="24" font-weight="600" fill="#ffffff">Portfólio de uma página, em HTML e CSS</text>
  <text x="74" y="232" font-family="system-ui,-apple-system,'Segoe UI',Roboto,sans-serif" font-size="17" fill="rgba(255,255,255,.78)">HTML semântico · CSS Grid · animações · Fira Sans</text>

  <g font-family="system-ui,-apple-system,'Segoe UI',Roboto,sans-serif" font-size="14" font-weight="600">
    <rect x="74" y="262" width="127" height="32" rx="16" fill="rgba(182,41,248,.18)"/>
    <circle cx="94" cy="278" r="4" fill="#e2b8ff"/><text x="106" y="283" fill="#e2b8ff">Introdução</text>
    <rect x="211" y="262" width="135" height="32" rx="16" fill="rgba(182,41,248,.18)"/>
    <circle cx="231" cy="278" r="4" fill="#e2b8ff"/><text x="243" y="283" fill="#e2b8ff">Experiência</text>
    <rect x="356" y="262" width="111" height="32" rx="16" fill="rgba(182,41,248,.18)"/>
    <circle cx="376" cy="278" r="4" fill="#e2b8ff"/><text x="388" y="283" fill="#e2b8ff">Formação</text>
    <rect x="477" y="262" width="103" height="32" rx="16" fill="rgba(182,41,248,.18)"/>
    <circle cx="497" cy="278" r="4" fill="#e2b8ff"/><text x="509" y="283" fill="#e2b8ff">Contato</text>
  </g>

  <g transform="translate(700,64)">
    <rect width="428" height="252" rx="18" fill="#0d1117" filter="url(#sombra)"/>
    <g clip-path="url(#recorte)">
    <rect width="428" height="252" rx="18" fill="#0d1117"/>
    <path d="M0 18a18 18 0 0 1 18-18h392a18 18 0 0 1 18 18v12H0z" fill="#161b22"/>
    <circle cx="22" cy="16" r="4.5" fill="#ff5f57"/><circle cx="38" cy="16" r="4.5" fill="#febc2e"/><circle cx="54" cy="16" r="4.5" fill="#28c840"/>
    <text x="241" y="20" text-anchor="middle" font-family="ui-monospace,SFMono-Regular,Menlo,Consolas,monospace,'Noto Color Emoji','Apple Color Emoji','Segoe UI Emoji'" font-size="11" fill="#7d8590">css/style.css</text>
    <g font-family="ui-monospace,SFMono-Regular,Menlo,Consolas,monospace,'Noto Color Emoji','Apple Color Emoji','Segoe UI Emoji'" font-size="13" fill="#c9d1d9">
    <text x="20" y="56.3" xml:space="preserve"><tspan fill="#79c0ff">@import</tspan><tspan> </tspan><tspan fill="#7ee787">'global.css'</tspan><tspan>;</tspan></text>
    <text x="20" y="72.63" xml:space="preserve"><tspan fill="#79c0ff">@import</tspan><tspan> </tspan><tspan fill="#7ee787">'header.css'</tspan><tspan>;</tspan></text>
    <text x="20" y="88.96" xml:space="preserve"><tspan fill="#79c0ff">@import</tspan><tspan> </tspan><tspan fill="#7ee787">'introducao.css'</tspan><tspan>;</tspan></text>
    <text x="20" y="105.28999999999999" xml:space="preserve"><tspan fill="#79c0ff">@import</tspan><tspan> </tspan><tspan fill="#7ee787">'experiencia.css'</tspan><tspan>;</tspan></text>
    <text x="20" y="121.61999999999999" xml:space="preserve"><tspan fill="#79c0ff">@import</tspan><tspan> </tspan><tspan fill="#7ee787">'formacao.css'</tspan><tspan>;</tspan></text>
    <text x="20" y="137.95" xml:space="preserve"><tspan fill="#79c0ff">@import</tspan><tspan> </tspan><tspan fill="#7ee787">'footer.css'</tspan><tspan>;</tspan></text>
    <text x="20" y="154.27999999999997" xml:space="preserve"><tspan></tspan></text>
    <text x="20" y="170.60999999999999" xml:space="preserve"><tspan fill="#7d8590">/* css/header.css */</tspan></text>
    <text x="20" y="186.94" xml:space="preserve"><tspan fill="#79c0ff">@keyframes</tspan><tspan> </tspan><tspan fill="#f2cc60">blink</tspan><tspan> {</tspan></text>
    <text x="20" y="203.26999999999998" xml:space="preserve"><tspan>  </tspan><tspan fill="#a5d6ff">0%, 100%</tspan><tspan> { </tspan><tspan fill="#d2a8ff">opacity</tspan><tspan>: 1; }</tspan></text>
    <text x="20" y="219.59999999999997" xml:space="preserve"><tspan>  </tspan><tspan fill="#a5d6ff">50%</tspan><tspan> { </tspan><tspan fill="#d2a8ff">opacity</tspan><tspan>: 0; }</tspan></text>
    <text x="20" y="235.93" xml:space="preserve"><tspan>}</tspan></text>
    </g>
    </g>
  </g>
</svg>
